<svg width="496" height="115" viewBox="0 0 496 115" fill="none" xmlns="http://www.w3.org/2000/svg">
<path fill-rule="evenodd" clip-rule="evenodd" d="M0.131348 28.7664L14.1184 20.6882L52.1397 42.7555C53.9127 41.7704 55.62 40.7195 57.393 39.7344C44.7193 32.3129 32.0455 24.9571 19.3718 17.6014L49.7757 0L99.6826 28.7664L86.3522 36.5162L49.8413 15.3683C48.0683 16.3535 46.361 17.4043 44.588 18.3895C56.7364 25.4826 68.8848 32.51 81.0989 39.603L50.0383 57.6641L0.131348 28.7664Z" fill="#EE6C4D"/>
<path fill-rule="evenodd" clip-rule="evenodd" d="M50.0383 57.4673L0.131334 28.6352L0.0656671 65.6112L40.0569 88.795C40.0569 90.831 40.0569 92.8013 40.0569 94.8373C26.7265 87.0874 13.3961 79.4033 0 71.6534V86.168L49.907 115L49.9726 79.0749L15.4974 59.0435C15.4974 57.0075 15.4974 55.0372 15.5631 53.0012C27.0548 59.6346 38.5466 66.3336 50.0383 72.967V57.4673Z" fill="#98C1D9"/>
<path fill-rule="evenodd" clip-rule="evenodd" d="M49.842 100.157L85.4993 79.4689C85.4993 77.4986 85.4336 75.4627 85.4336 73.4924C73.5478 80.3884 61.6621 87.2845 49.7764 94.1148L49.7107 57.4673L99.6177 28.6352L99.6833 45.12L62.5158 66.662C62.5158 68.698 62.5158 70.6683 62.5158 72.7042C74.9269 65.5455 87.3379 58.3867 99.749 51.228L99.8147 86.168L49.9077 115L49.842 100.157Z" fill="#3D5A80"/>
<path d="M179.399 42.0022C174.259 42.0022 171.69 43.6901 171.69 47.0659C171.69 48.5663 172.326 49.715 173.599 50.5121C174.872 51.3092 177.843 52.4579 182.511 53.9582C187.226 55.4586 190.526 57.17 192.412 59.0923C194.298 60.9678 195.241 63.8747 195.241 67.8132C195.241 72.83 193.709 76.6278 190.644 79.2066C187.579 81.7853 183.572 83.0747 178.621 83.0747C174.943 83.0747 170.44 82.5121 165.112 81.3868L162.566 80.8945L163.556 73.3692C169.874 74.2132 174.707 74.6352 178.055 74.6352C183.053 74.6352 185.552 72.5722 185.552 68.4462C185.552 66.9458 184.963 65.7736 183.784 64.9297C182.652 64.0857 180.365 63.1714 176.923 62.1868C171.454 60.6396 167.587 58.811 165.324 56.7011C163.108 54.5443 162 51.567 162 47.7692C162 42.9868 163.462 39.4234 166.385 37.0791C169.308 34.7348 173.316 33.5626 178.409 33.5626C181.898 33.5626 186.33 34.0315 191.705 34.9692L194.251 35.4615L193.473 43.1275C186.825 42.3773 182.133 42.0022 179.399 42.0022Z" fill="#1D205E"/>
<path d="M223.104 47.0659H232.581V82.2308H223.175V80.2615C219.78 82.137 216.833 83.0747 214.334 83.0747C209.43 83.0747 206.129 81.7385 204.432 79.0659C202.735 76.3465 201.886 71.822 201.886 65.4923V47.0659H211.363V65.633C211.363 69.1026 211.646 71.4703 212.212 72.7363C212.778 74.0022 214.145 74.6352 216.314 74.6352C218.389 74.6352 220.346 74.307 222.184 73.6505L223.104 73.3692V47.0659Z" fill="#1D205E"/>
<path d="M258.448 46.222C263.399 46.222 267.006 47.5817 269.27 50.3011C271.58 52.9736 272.735 57.7795 272.735 64.7187C272.735 71.6579 271.415 76.4637 268.774 79.1363C266.134 81.7619 261.584 83.0747 255.124 83.0747C253.097 83.0747 249.395 82.8403 244.02 82.3714L241.333 82.0901V33H250.81V48.1209C253.828 46.8549 256.374 46.222 258.448 46.222ZM255.124 74.6352C258.283 74.6352 260.405 73.885 261.49 72.3846C262.574 70.8374 263.116 68.0945 263.116 64.156C263.116 57.8264 261.136 54.6615 257.175 54.6615C255.289 54.6615 253.497 54.896 251.8 55.3648L250.81 55.5758V74.3538C252.979 74.5414 254.417 74.6352 255.124 74.6352Z" fill="#1D205E"/>
<path d="M305.195 55.8571C299.348 55.107 295.246 54.7319 292.888 54.7319C290.578 54.7319 289.069 54.9429 288.362 55.3648C287.702 55.7868 287.372 56.4667 287.372 57.4044C287.372 58.2952 287.82 58.9282 288.715 59.3033C289.658 59.6315 292.016 60.1473 295.788 60.8505C299.607 61.507 302.319 62.6088 303.922 64.156C305.525 65.7033 306.326 68.2117 306.326 71.6813C306.326 79.2769 301.588 83.0747 292.11 83.0747C288.998 83.0747 285.226 82.6528 280.794 81.8088L278.531 81.3868L278.814 73.5099C284.66 74.2601 288.715 74.6352 290.979 74.6352C293.289 74.6352 294.845 74.4242 295.647 74.0022C296.495 73.5333 296.92 72.8535 296.92 71.9626C296.92 71.0718 296.472 70.4154 295.576 69.9934C294.727 69.5714 292.464 69.0557 288.786 68.4462C285.156 67.8366 282.444 66.8051 280.653 65.3516C278.861 63.8982 277.965 61.3194 277.965 57.6154C277.965 53.8645 279.238 51.0513 281.784 49.1758C284.33 47.2535 287.607 46.2923 291.615 46.2923C294.397 46.2923 298.193 46.7377 303.002 47.6286L305.336 48.0506L305.195 55.8571Z" fill="#1D205E"/>
<path d="M320.944 68.6571C320.991 70.8139 321.557 72.3846 322.642 73.3692C323.773 74.307 325.376 74.7758 327.451 74.7758C331.836 74.7758 335.75 74.6352 339.192 74.3538L341.172 74.1429L341.313 81.1055C335.891 82.4183 330.987 83.0747 326.602 83.0747C321.274 83.0747 317.408 81.6681 315.003 78.8549C312.598 76.0418 311.396 71.4703 311.396 65.1407C311.396 52.5282 316.606 46.222 327.027 46.222C337.305 46.222 342.445 51.5201 342.445 62.1165L341.738 68.6571H320.944ZM333.109 61.4835C333.109 58.6703 332.661 56.7245 331.765 55.6462C330.869 54.5209 329.29 53.9582 327.027 53.9582C324.81 53.9582 323.231 54.5443 322.288 55.7165C321.392 56.8418 320.921 58.7641 320.873 61.4835H333.109Z" fill="#1D205E"/>
<path d="M358.695 82.2308H349.218V47.0659H358.625V49.0352C361.878 47.1597 364.66 46.222 366.97 46.222C370.79 46.222 373.737 47.3238 375.811 49.5275C380.149 47.3238 384.11 46.222 387.693 46.222C392.361 46.222 395.591 47.5817 397.383 50.3011C399.222 52.9736 400.141 57.2637 400.141 63.1714V82.2308H390.664V63.4527C390.664 60.452 390.334 58.2484 389.674 56.8418C389.014 55.3883 387.693 54.6615 385.713 54.6615C384.204 54.6615 382.365 54.9897 380.196 55.6462L379.135 55.9978C379.324 59.5143 379.418 62.1868 379.418 64.0154V82.2308H369.941V64.156C369.941 60.6864 369.635 58.2484 369.022 56.8418C368.409 55.3883 367.065 54.6615 364.99 54.6615C363.151 54.6615 361.336 54.9897 359.544 55.6462L358.695 55.9275V82.2308Z" fill="#1D205E"/>
<path d="M425.664 46.222C430.615 46.222 434.222 47.5817 436.485 50.3011C438.796 52.9736 439.951 57.7795 439.951 64.7187C439.951 71.6579 438.631 76.4637 435.99 79.1363C433.35 81.7619 428.8 83.0747 422.34 83.0747C420.312 83.0747 416.611 82.8403 411.236 82.3714L408.548 82.0901V33H418.026V48.1209C421.043 46.8549 423.589 46.222 425.664 46.222ZM422.34 74.6352C425.499 74.6352 427.621 73.885 428.705 72.3846C429.79 70.8374 430.332 68.0945 430.332 64.156C430.332 57.8264 428.352 54.6615 424.391 54.6615C422.505 54.6615 420.713 54.896 419.016 55.3648L418.026 55.5758V74.3538C420.195 74.5414 421.633 74.6352 422.34 74.6352Z" fill="#1D205E"/>
<path d="M447.444 82.2308V33H456.921V82.2308H447.444Z" fill="#1D205E"/>
<path d="M462.829 47.0659H472.165L478.601 74.2132H480.228L486.664 47.0659H496L483.552 97H474.287L478.177 82.2308H471.529L462.829 47.0659Z" fill="#1D205E"/>
</svg>
